Coordinates
version=1
nRows=14
nColumns=24
inDegrees=yes

Units are S.I. units (second, meters, Newtons, ...)
Angles are in degrees.

endheader
time	pelvis_tilt	pelvis_list	pelvis_rotation	pelvis_tx	pelvis_ty	pelvis_tz	hip_flexion_r	hip_adduction_r	hip_rotation_r	knee_angle_r	ankle_angle_r	subtalar_angle_r	mtp_angle_r	hip_flexion_l	hip_adduction_l	hip_rotation_l	knee_angle_l	ankle_angle_l	subtalar_angle_l	mtp_angle_l	lumbar_extension	lumbar_bending	lumbar_rotation
      4.37500000	    -10.56445733	      4.91610286	     -2.51723912	     -0.83372893	     -0.02015589	     -0.67448784	     16.16576262	     -7.72008375	     -3.67463938	    -60.42549511	    -25.75996269	    -17.55552979	     -0.03277170	     27.98596614	      6.09537796	    -14.07463663	    -22.30523138	      0.14495548	    -10.10219520	      5.84424712	      8.55490386	     -5.75872098	      0.58422332
      4.38000000	    -10.56378135	      4.91830783	     -2.39213396	     -0.82818076	     -0.01935055	     -0.67524344	     17.06681837	     -7.73136212	     -3.62247946	    -61.54390498	    -25.50454883	    -18.03867879	      0.05220657	     27.44430116	      6.27012933	    -13.90373425	    -22.00444157	      0.41740830	    -10.01168480	      5.90311966	      8.52827097	     -5.76534671	      0.38350201
      4.38500000	    -10.55712682	      4.88899432	     -2.27149622	     -0.82272969	     -0.01848120	     -0.67591739	     17.94652893	     -7.67934361	     -3.55391058	    -62.56951206	    -25.04869541	    -18.47421938	      0.15667819	     26.89403713	      6.40446683	    -13.70564172	    -21.69281362	      0.63291786	     -9.91413633	      5.93928179	      8.47738694	     -5.74498349	      0.20105418
      4.39000000	    -10.70091563	      4.87337764	     -2.16516977	     -0.81735167	     -0.01781545	     -0.67662266	     19.02373033	     -7.63868295	     -3.46900184	    -63.57664861	    -24.41214212	    -18.76865302	      0.27302789	     26.53090020	      6.53026527	    -13.62155315	    -21.40188362	      0.82694708	     -9.89325404	      5.89621546	      8.59215618	     -5.72417440	     -0.01678045
      4.39500000	    -10.75575071	      4.81419420	     -2.04193053	     -0.81194069	     -0.01699865	     -0.67735786	     19.95275594	     -7.55881878	     -3.42223342	    -64.45124674	    -23.60613133	    -18.92929862	      0.43660312	     26.04063850	      6.63604038	    -13.42417250	    -21.07319544	      1.04911784	     -9.83147534	      5.85197686	      8.61242697	     -5.65783637	     -0.20506004
      4.40000000	    -10.79667301	      4.74585819	     -1.92093911	     -0.80650885	     -0.01614713	     -0.67811864	     20.84712443	     -7.47385657	     -3.39049700	    -65.22985101	    -22.71291994	    -19.01497437	      0.64550647	     25.51704439	      6.73581656	    -13.22692145	    -20.71255078	      1.27711177	     -9.76987342	      5.81440125	      8.62480844	     -5.57500120	     -0.39112091
      4.40500000	    -10.85221012	      4.65825542	     -1.80080808	     -0.80116240	     -0.01528559	     -0.67883967	     21.74615157	     -7.35390829	     -3.34577964	    -65.92532573	    -21.69529871	    -18.96876234	      0.91783929	     25.01652400	      6.80636692	    -13.03569187	    -20.35489246	      1.45554806	     -9.71395454	      5.74213927	      8.64298386	     -5.47580039	     -0.57839547
      4.41000000	    -10.89345086	      4.56418743	     -1.68167167	     -0.79579344	     -0.01440021	     -0.67959298	     22.61066462	     -7.23575727	     -3.32244016	    -66.52646259	    -20.67175422	    -18.89960752	      1.22078923	     24.48360828	      6.87342319	    -12.83824823	    -19.96900686	      1.64600336	     -9.65122868	      5.67738755	      8.65245686	     -5.36344754	     -0.76076277
      4.41500000	    -10.92835389	      4.46220560	     -1.56164557	     -0.79044862	     -0.01350125	     -0.68033571	     23.45025964	     -7.10635140	     -3.30321596	    -67.03741701	    -19.62978356	    -18.77940590	      1.55921826	     23.93858580	      6.92972755	    -12.64199242	    -19.57035127	      1.82271941	     -9.58237755	      5.60939711	      8.65364451	     -5.24204686	     -0.93848082
      4.42000000	    -10.95582998	      4.35837405	     -1.43815059	     -0.78512181	     -0.01258311	     -0.68106356	     24.26124679	     -6.97273355	     -3.28908112	    -67.45663590	    -18.59509161	    -18.63368286	      1.93336748	     23.38004872	      6.98100016	    -12.45250839	    -19.15778948	      1.96893424	     -9.50742539	      5.52048564	      8.64455914	     -5.12070994	     -1.10199907
      4.42500000	    -10.96431869	      4.25853859	     -1.31647450	     -0.77976495	     -0.01167413	     -0.68183078	     25.03656064	     -6.85721650	     -3.29524494	    -67.79518701	    -17.62878557	    -18.49267608	      2.29795197	     22.78546427	      7.03900171	    -12.26481786	    -18.72002828	      2.14775327	     -9.42311425	      5.45372183	      8.62595731	     -4.99482527	     -1.27733001
      4.43000000	    -10.95917440	      4.16051429	     -1.19255008	     -0.77441069	     -0.01074273	     -0.68256360	     25.77218431	     -6.73864650	     -3.30267535	    -68.04090240	    -16.69971239	    -18.34690063	      2.67494726	     22.16881386	      7.09334804	    -12.08979270	    -18.26625647	      2.29093914	     -9.32765975	      5.37361379	      8.59331636	     -4.87492949	     -1.44623700
      4.43500000	    -10.93605817	      4.06948104	     -1.06704703	     -0.76902694	     -0.00981699	     -0.68331247	     26.46721864	     -6.63635315	     -3.32730224	    -68.20286636	    -15.85137532	    -18.23831292	      3.03351452	     21.51988955	      7.15533348	    -11.91750691	    -17.79147548	      2.43950247	     -9.22077895	      5.30215814	      8.54767193	     -4.75893019	     -1.60910746
      4.44000000	    -10.86980443	      3.98169220	     -0.96867929	     -0.76358816	     -0.00882311	     -0.68405319	     27.08442211	     -6.52939667	     -3.32740645	    -68.25183889	    -15.10611924	    -18.15021437	      3.58537050	     20.79694199	      7.21952146	    -11.74028938	    -17.27063876	      2.55654821	     -9.16362308	      5.09721502	      8.47172887	     -4.63456996	     -1.73055506
